<svg width="69" height="37" viewBox="0 0 69 37" fill="none" xmlns="http://www.w3.org/2000/svg">
    <path d="M34.5 37C25.4243 37 16.8459 35.1752 10.3811 31.7772C3.66757 28.3163 0 23.5969 0 18.5C0 13.4031 3.66757 8.68367 10.3811 5.22279C16.8459 1.82483 25.4243 0 34.5 0C43.5757 0 52.1541 1.82483 58.6189 5.22279C65.3324 8.68367 69 13.466 69 18.5629C69 23.6599 65.3324 28.3163 58.6189 31.8401C52.1541 35.1752 43.5757 37 34.5 37ZM34.5 2.45408C25.7973 2.45408 17.6541 4.21599 11.5 7.36224C5.65676 10.4456 2.42432 14.4099 2.42432 18.5C2.42432 22.5901 5.65676 26.5544 11.5 29.6378C17.5919 32.784 25.7973 34.5459 34.5 34.5459C43.2027 34.5459 51.3459 32.784 57.5 29.6378C63.3432 26.6173 66.5757 22.6531 66.5757 18.5C66.5757 14.3469 63.3432 10.4456 57.5 7.36224C51.3459 4.21599 43.2027 2.45408 34.5 2.45408Z" fill="black"/>
    <path d="M50.2891 10.6343C51.035 11.0119 51.6567 11.6411 52.154 12.3962C52.6513 13.2143 52.9621 14.0952 53.0242 15.2279L50.9729 15.8571C50.8486 14.7245 50.4756 13.8435 49.7918 13.2143C49.108 12.585 48.2999 12.2704 47.2432 12.2704C46.1864 12.2704 45.3161 12.5221 44.508 13.0884C43.7621 13.5918 43.1405 14.3469 42.7675 15.3537C42.3945 16.3605 42.1459 17.4932 42.1459 18.8146V26.4286H39.7837V10.6973H41.835L42.0215 13.5918C42.581 12.5221 43.2648 11.6411 44.1972 11.0119C45.1296 10.3826 46.1864 10.068 47.4296 10.068C48.6107 10.0051 49.481 10.1939 50.2891 10.6343Z" fill="black"/>
    <path d="M37.2351 24.2891C37.0486 24.5408 36.8 24.7925 36.4892 24.9813C36.3648 25.0442 36.2405 25.1071 36.1162 25.1701C35.4946 25.4218 34.9351 25.2959 34.6243 24.9184C34.3756 24.6667 34.2513 24.352 34.2513 23.9116V21.3946H31.9513L30.1486 22.9677C29.5892 23.4711 28.9054 23.8486 28.0973 24.1633C26.9162 24.6667 25.5486 24.9184 24.0567 24.9184C22.5027 24.9184 21.2594 24.6667 20.327 24.2262C19.4567 23.7228 18.9594 23.0935 18.9594 22.2755C18.9594 21.4575 19.4567 20.7653 20.4513 20.2619C21.4459 19.7585 22.9378 19.3809 25.0513 19.1292L31.8892 18.5629C33.2567 18.4371 34.2513 17.3044 34.2513 15.9201V15.8571C34.2513 14.6616 33.8783 13.5918 33.1946 12.7738C32.5108 11.8929 31.5162 11.2636 30.2729 10.7602C29.0297 10.3197 27.6621 10.068 26.1702 10.068C24.7405 10.068 23.4351 10.2568 22.1297 10.6973C20.8865 11.1378 19.7675 11.7041 18.8351 12.3333C17.9027 13.0255 17.281 13.7806 16.9702 14.5986L18.7108 15.7942C19.0216 15.165 19.5189 14.5357 20.2027 14.0323C20.9486 13.466 21.8189 13.0255 22.8756 12.7109C23.9324 12.3963 24.9892 12.2075 26.1081 12.2075C27.227 12.2075 28.2216 12.3333 29.0919 12.585C29.9621 12.8367 30.7081 13.2143 31.2054 13.7177C31.7027 14.2211 31.9513 14.7874 31.9513 15.4167C31.9513 15.7942 31.827 16.0459 31.5783 16.2347C31.3297 16.4235 31.0189 16.5493 30.6459 16.5493L24.8648 17.1156C22.1297 17.4303 20.0783 17.9966 18.7108 18.8775C17.3432 19.7585 16.6594 20.9541 16.6594 22.3384C16.6594 23.2823 16.9702 24.1003 17.5297 24.7925C18.0892 25.4847 18.8973 26.051 19.954 26.4286C21.0108 26.8061 22.3162 26.9949 23.7459 26.9949C24.927 26.9949 26.1081 26.869 27.1648 26.5544C28.2216 26.2398 29.154 25.7993 29.9621 25.2959C30.7702 24.7296 31.3297 24.2262 31.7648 23.4711L32.0135 23.4082L31.9513 24.0374C31.9513 24.6667 32.0756 25.1701 32.3243 25.6105C32.5729 26.051 32.9459 26.3656 33.4432 26.6803C33.8783 26.932 34.4378 27.0578 34.9973 27.0578C35.681 27.0578 36.3648 26.932 36.9865 26.6173C37.6702 26.3027 38.1054 25.8622 38.4162 25.3588L37.2351 24.2891Z" fill="black"/>
</svg>
